<?xml version="1.0" standalone="no"?>
<!DOCTYPE svg PUBLIC "-//W3C//DTD SVG 20010904//EN"
 "http://www.w3.org/TR/2001/REC-SVG-20010904/DTD/svg10.dtd">
<svg version="1.0" xmlns="http://www.w3.org/2000/svg"
 width="80.000000pt" height="65.000000pt" viewBox="0 0 200.000000 200.000000"
 preserveAspectRatio="xMidYMid meet">

<g transform="translate(0,200) scale(0.100009,-0.100000)"
fill="#ffffff" stroke="white" stroke-width="16">
<path d="M747 1373 c-4 -3 -7 -84 -7 -179 0 -205 -7 -194 129 -194 l91 0 0
-34 c0 -24 -5 -36 -17 -39 -10 -3 20 -5 67 -5 47 0 77 2 68 5 -13 3 -18 15
-18 39 l0 34 93 0 c59 0 99 5 110 13 16 11 17 31 15 187 l-3 175 -261 3 c-143
1 -263 -1 -267 -5z m521 -180 l2 -173 -260 0 -260 0 0 168 c0 93 3 172 7 176
4 3 119 5 257 4 l251 -3 3 -172z m-218 -228 c0 -34 -1 -35 -40 -35 -39 0 -40
1 -40 35 0 34 1 35 40 35 39 0 40 -1 40 -35z"/>
<path d="M1006 1199 c-20 -50 -35 -93 -33 -96 3 -2 21 37 41 88 20 50 35 93
33 96 -3 2 -21 -37 -41 -88z"/>
<path d="M856 1226 l-58 -33 56 -33 c32 -18 60 -30 63 -27 3 3 -19 18 -47 32
l-53 27 59 34 c32 18 55 33 49 34 -5 0 -36 -15 -69 -34z"/>
<path d="M1144 1226 l59 -34 -53 -27 c-28 -14 -50 -29 -47 -31 3 -3 31 9 62
27 l57 32 -58 33 c-33 19 -63 34 -69 34 -5 -1 17 -16 49 -34z"/>
<path d="M900 789 c0 -7 -17 -42 -38 -78 -34 -58 -37 -69 -24 -81 11 -10 19
-10 32 -2 13 8 21 7 29 -1 8 -8 11 -4 11 18 0 16 10 40 23 53 14 16 17 23 7
20 -8 -2 -28 -23 -43 -46 -28 -42 -47 -54 -47 -29 0 6 18 45 40 85 28 52 35
72 25 72 -8 0 -15 -5 -15 -11z"/>
<path d="M1070 721 c-37 -75 -70 -118 -56 -75 3 11 1 26 -4 34 -8 12 -10 10
-10 -10 0 -15 -5 -31 -11 -37 -8 -8 -3 -11 20 -10 23 2 36 9 45 27 7 14 27 53
45 88 18 34 28 62 22 62 -6 0 -29 -36 -51 -79z"/>
<path d="M1170 740 c0 -5 5 -10 10 -10 6 0 10 5 10 10 0 6 -4 10 -10 10 -5 0
-10 -4 -10 -10z"/>
<path d="M1000 725 c-7 -9 -11 -17 -9 -20 3 -2 10 5 17 15 14 24 10 26 -8 5z"/>
<path d="M446 679 c-12 -29 -14 -45 -7 -52 8 -8 11 -5 11 9 0 10 9 34 20 52
15 24 16 32 6 32 -8 0 -21 -19 -30 -41z"/>
<path d="M505 690 c-8 -16 -15 -39 -14 -52 0 -17 4 -13 15 16 8 21 19 45 25
52 8 10 8 14 0 14 -6 0 -17 -13 -26 -30z"/>
<path d="M557 714 c-4 -4 -7 -19 -6 -33 l0 -26 10 24 c10 26 8 47 -4 35z"/>
<path d="M601 694 c-11 -15 -21 -37 -21 -50 0 -32 15 -31 16 2 2 24 29 64 45
64 4 0 10 -10 12 -22 5 -20 5 -20 4 2 -3 34 -30 37 -56 4z"/>
<path d="M695 688 c-10 -18 -24 -41 -33 -50 -14 -16 -13 -18 2 -18 10 0 24 17
37 46 23 55 18 71 -6 22z"/>
<path d="M809 703 c-34 -42 -62 -87 -46 -74 11 9 17 10 17 2 0 -6 10 -10 23
-10 16 1 18 2 5 6 -10 2 -18 7 -18 9 0 15 32 64 47 73 15 9 16 10 2 11 -9 0
-22 -8 -30 -17z"/>
<path d="M1144 675 c-11 -24 -17 -42 -12 -39 4 3 8 -1 8 -8 1 -7 10 10 20 37
23 57 22 55 13 55 -5 -1 -17 -21 -29 -45z"/>
<path d="M1276 698 c-17 -24 -22 -78 -7 -78 5 0 7 9 4 21 -4 12 3 32 16 50 12
16 17 29 12 29 -5 0 -17 -10 -25 -22z"/>
<path d="M1323 705 c0 -8 4 -12 9 -9 5 3 6 10 3 15 -9 13 -12 11 -12 -6z"/>
<path d="M1350 688 c-22 -37 -25 -54 -10 -63 6 -3 10 3 10 15 0 31 18 60 43
70 l22 9 -23 0 c-15 1 -29 -10 -42 -31z"/>
<path d="M1441 674 c-29 -48 -33 -63 -12 -49 13 8 53 87 47 93 -3 2 -18 -18
-35 -44z"/>
<path d="M742 703 c-6 -2 -10 -9 -7 -14 3 -5 1 -18 -5 -30 -7 -12 -8 -25 -3
-30 5 -5 15 11 24 36 16 45 16 48 -9 38z"/>
<path d="M1102 703 c-6 -2 -10 -9 -7 -14 3 -5 1 -18 -5 -29 -6 -11 -8 -25 -4
-31 3 -6 15 8 25 31 25 55 24 57 -9 43z"/>
<path d="M1496 702 c-2 -4 -7 -25 -11 -47 -6 -38 -5 -39 8 -15 21 37 30 70 18
70 -5 0 -12 -3 -15 -8z"/>
<path d="M1549 708 c-17 -57 -21 -88 -10 -88 6 0 11 7 11 15 0 9 7 29 15 45
14 27 14 30 0 30 -8 0 -15 -1 -16 -2z"/>



</g>
</svg>
